<svg width="203" height="40" viewBox="0 0 203 40" fill="none" xmlns="http://www.w3.org/2000/svg">
<path d="M0 12.8636C0 7.96838 3.96838 4 8.86364 4H17.1364C22.0316 4 26 7.96838 26 12.8636V21.1364C26 26.0316 22.0316 30 17.1364 30H8.86364C3.96838 30 0 26.0316 0 21.1364V12.8636Z" fill="#020059"/>
<path d="M0 12.8636C0 7.96838 3.96838 4 8.86364 4H17.1364C22.0316 4 26 7.96838 26 12.8636V21.1364C26 26.0316 22.0316 30 17.1364 30H8.86364C3.96838 30 0 26.0316 0 21.1364V12.8636Z" fill="url(#paint0_linear_7743_45428)"/>
<path d="M19.7312 9.01749L5.26881 11.398C4.57129 11.5126 4 12.1612 4 12.8392V16.46C4 17.138 4.55419 17.8554 5.2311 18.0548L12.4512 20.1772C11.6939 24.0393 8.16149 26 8.16149 26C13.457 26 16.6182 23.5265 18.1516 21.8528L19.7694 22.3281C20.4463 22.5274 21 22.1355 21 21.4575V10.0416C21 9.36369 20.4287 8.90289 19.7312 9.01749ZM9.98098 15.6709C9.48663 15.6709 9.08582 15.2873 9.08582 14.814C9.08582 14.3407 9.48663 13.9572 9.98098 13.9572C10.4753 13.9572 10.8761 14.3407 10.8761 14.814C10.8761 15.2873 10.4753 15.6709 9.98098 15.6709ZM12.7575 15.6709C12.2631 15.6709 11.8626 15.2873 11.8626 14.814C11.8626 14.3407 12.2631 13.9572 12.7575 13.9572C13.2518 13.9572 13.6526 14.3407 13.6526 14.814C13.6526 15.2873 13.2518 15.6709 12.7575 15.6709ZM15.5342 15.6709C15.0399 15.6709 14.6393 15.2873 14.6393 14.814C14.6393 14.3407 15.0399 13.9572 15.5342 13.9572C16.0286 13.9572 16.4292 14.3407 16.4292 14.814C16.4292 15.2873 16.0286 15.6709 15.5342 15.6709Z" fill="white"/>
<path d="M37.8526 27.4225C37.6352 27.4225 37.4475 27.3434 37.2894 27.1853C37.1314 27.0273 37.0523 26.8396 37.0523 26.6222V13.0476H32.1323C31.9149 13.0476 31.7272 12.9686 31.5691 12.8105C31.4111 12.6525 31.332 12.4647 31.332 12.2474V7.47555C31.332 7.2582 31.4111 7.07048 31.5691 6.91241C31.7272 6.75434 31.9149 6.6753 32.1323 6.6753H49.5006C49.718 6.6753 49.9057 6.75434 50.0637 6.91241C50.2218 7.07048 50.3009 7.2582 50.3009 7.47555V12.2474C50.3009 12.4647 50.2218 12.6525 50.0637 12.8105C49.9057 12.9686 49.718 13.0476 49.5006 13.0476H44.5806V26.6222C44.5806 26.8396 44.5015 27.0273 44.3435 27.1853C44.1854 27.3434 43.9977 27.4225 43.7803 27.4225H37.8526Z" fill="#02026F"/>
<path d="M54.5353 27.7188C53.4288 27.7188 52.4309 27.5114 51.5417 27.0964C50.6723 26.6815 49.9907 26.1183 49.4967 25.407C49.0225 24.6957 48.7853 23.8954 48.7853 23.0063C48.7853 20.3388 50.949 18.6296 55.2762 17.8788L58.4179 17.3749V17.3453C58.4179 16.7722 58.3686 16.3869 58.2698 16.1894C58.171 15.972 57.924 15.8633 57.5288 15.8633C57.3114 15.8633 57.1237 15.9028 56.9656 15.9819C56.8076 16.0609 56.6396 16.1795 56.4618 16.3375C56.284 16.4956 56.1259 16.6142 55.9876 16.6932C55.869 16.7722 55.7011 16.8118 55.4837 16.8118H55.3948H50.4451C50.2673 16.8118 50.1092 16.7624 49.9709 16.6636C49.8523 16.545 49.7931 16.3968 49.7931 16.219C49.7931 15.646 50.0697 15.0038 50.6229 14.2925C51.196 13.5811 52.0654 12.9785 53.2312 12.4845C54.4167 11.9708 55.869 11.7139 57.5881 11.7139C60.2358 11.7139 62.2216 12.2672 63.5455 13.3737C64.8693 14.4802 65.5313 16.0609 65.5313 18.1159V26.6222C65.5313 26.8396 65.4522 27.0273 65.2941 27.1853C65.1361 27.3434 64.9484 27.4225 64.731 27.4225H59.5442C59.3269 27.4225 59.1392 27.3434 58.9811 27.1853C58.823 27.0273 58.744 26.8396 58.744 26.6222V25.7923C58.3093 26.3851 57.7264 26.8593 56.9953 27.215C56.2642 27.5509 55.4442 27.7188 54.5353 27.7188ZM56.5803 23.3323C57.1731 23.3323 57.6375 23.1446 57.9734 22.7692C58.329 22.3937 58.5069 21.8207 58.5069 21.0501V21.0205L56.7582 21.4058C55.8888 21.6034 55.4541 21.9689 55.4541 22.5024C55.4541 22.7395 55.5529 22.9371 55.7505 23.0952C55.948 23.2533 56.2247 23.3323 56.5803 23.3323Z" fill="#02026F"/>
<path d="M68.8529 27.4225C68.6355 27.4225 68.4478 27.3434 68.2897 27.1853C68.1317 27.0273 68.0526 26.8396 68.0526 26.6222V7.17916C68.0526 6.96181 68.1317 6.7741 68.2897 6.61602C68.4478 6.45795 68.6355 6.37891 68.8529 6.37891H74.1582C74.3756 6.37891 74.5633 6.45795 74.7214 6.61602C74.8794 6.7741 74.9585 6.96181 74.9585 7.17916V26.6222C74.9585 26.8396 74.8794 27.0273 74.7214 27.1853C74.5633 27.3434 74.3756 27.4225 74.1582 27.4225H68.8529Z" fill="#02026F"/>
<path d="M78.4334 27.4225C78.216 27.4225 78.0283 27.3434 77.8703 27.1853C77.7122 27.0273 77.6331 26.8396 77.6331 26.6222V7.17916C77.6331 6.96181 77.7122 6.7741 77.8703 6.61602C78.0283 6.45795 78.216 6.37891 78.4334 6.37891H83.6202C83.8375 6.37891 84.0252 6.45795 84.1833 6.61602C84.3414 6.7741 84.4204 6.96181 84.4204 7.17916V16.7821L87.0286 12.5141C87.2262 12.1782 87.5127 12.0103 87.8882 12.0103H93.8752C94.0728 12.0103 94.2407 12.0794 94.3791 12.2178C94.5174 12.3561 94.5865 12.524 94.5865 12.7216C94.5865 12.8599 94.5371 13.0081 94.4383 13.1662L90.3778 18.9458L95.1793 26.3258C95.2583 26.4444 95.2979 26.5728 95.2979 26.7111C95.2979 26.9087 95.2287 27.0767 95.0904 27.215C94.9521 27.3533 94.7841 27.4225 94.5865 27.4225H88.3624C87.9672 27.4225 87.6609 27.2545 87.4436 26.9186L84.4204 21.88V26.6222C84.4204 26.8396 84.3414 27.0273 84.1833 27.1853C84.0252 27.3434 83.8375 27.4225 83.6202 27.4225H78.4334Z" fill="#02026F"/>
<path d="M99.7312 33.0538C99.5533 33.0538 99.3953 32.9945 99.257 32.876C99.1384 32.7574 99.0791 32.6092 99.0791 32.4314C99.0791 32.4116 99.0692 32.3721 99.0495 32.3129C99.0495 32.2536 99.0692 32.1943 99.1088 32.135L101.48 26.4444L95.7596 12.9291C95.7398 12.8698 95.7299 12.8006 95.7299 12.7216C95.7695 12.524 95.8584 12.3561 95.9967 12.2178C96.135 12.0794 96.2931 12.0103 96.4709 12.0103H101.48C101.934 12.0103 102.25 12.2474 102.428 12.7216L104.859 19.4793L107.378 12.7216C107.576 12.2474 107.911 12.0103 108.386 12.0103H113.335C113.513 12.0103 113.671 12.0794 113.81 12.2178C113.948 12.3363 114.017 12.4746 114.017 12.6327C114.017 12.7513 114.007 12.85 113.987 12.9291L105.629 32.3425C105.432 32.8167 105.086 33.0538 104.592 33.0538H99.7312Z" fill="#02026F"/>
<path d="M125.065 27.4225C122.733 27.4225 120.915 26.9384 119.611 25.9702C118.307 24.9822 117.655 23.3422 117.655 21.0501V17.1971H115.314C115.096 17.1971 114.908 17.118 114.75 16.96C114.592 16.8019 114.513 16.6142 114.513 16.3968V12.8105C114.513 12.5932 114.592 12.4055 114.75 12.2474C114.908 12.0893 115.096 12.0103 115.314 12.0103H117.655V7.17916C117.655 6.96181 117.734 6.7741 117.892 6.61602C118.05 6.45795 118.238 6.37891 118.455 6.37891H123.642C123.859 6.37891 124.047 6.45795 124.205 6.61602C124.363 6.7741 124.442 6.96181 124.442 7.17916V12.0103H128.177C128.394 12.0103 128.582 12.0893 128.74 12.2474C128.898 12.4055 128.977 12.5932 128.977 12.8105V16.3968C128.977 16.6142 128.898 16.8019 128.74 16.96C128.582 17.118 128.394 17.1971 128.177 17.1971H124.442V20.4573C124.442 21.4453 124.867 21.9393 125.717 21.9393H128.414C128.631 21.9393 128.819 22.0183 128.977 22.1764C129.135 22.3345 129.214 22.5222 129.214 22.7395V26.6222C129.214 26.8396 129.135 27.0273 128.977 27.1853C128.819 27.3434 128.631 27.4225 128.414 27.4225H125.065Z" fill="#02026F"/>
<path d="M132.244 10.3801C132.027 10.3801 131.839 10.3011 131.681 10.143C131.523 9.98497 131.444 9.79725 131.444 9.5799V5.99361C131.444 5.77626 131.523 5.58854 131.681 5.43047C131.839 5.2724 132.027 5.19336 132.244 5.19336H137.253C137.47 5.19336 137.658 5.2724 137.816 5.43047C137.974 5.58854 138.053 5.77626 138.053 5.99361V9.5799C138.053 9.79725 137.974 9.98497 137.816 10.143C137.658 10.3011 137.47 10.3801 137.253 10.3801H132.244ZM132.096 27.4225C131.878 27.4225 131.691 27.3434 131.533 27.1853C131.375 27.0273 131.296 26.8396 131.296 26.6222V12.8105C131.296 12.5932 131.375 12.4055 131.533 12.2474C131.691 12.0893 131.878 12.0103 132.096 12.0103H137.401C137.619 12.0103 137.806 12.0893 137.964 12.2474C138.122 12.4055 138.201 12.5932 138.201 12.8105V26.6222C138.201 26.8396 138.122 27.0273 137.964 27.1853C137.806 27.3434 137.619 27.4225 137.401 27.4225H132.096Z" fill="#02026F"/>
<path d="M141.676 27.4225C141.459 27.4225 141.271 27.3434 141.113 27.1853C140.955 27.0273 140.876 26.8396 140.876 26.6222V12.8105C140.876 12.5932 140.955 12.4055 141.113 12.2474C141.271 12.0893 141.459 12.0103 141.676 12.0103H146.567C146.784 12.0103 146.972 12.0893 147.13 12.2474C147.288 12.4055 147.367 12.5932 147.367 12.8105V13.7886C147.782 13.2354 148.385 12.7513 149.175 12.3363C149.965 11.9214 150.854 11.7139 151.842 11.7139C153.957 11.7139 155.399 12.524 156.17 14.1443C156.644 13.4527 157.296 12.8797 158.126 12.4252C158.956 11.951 159.815 11.7139 160.704 11.7139C162.305 11.7139 163.609 12.2672 164.617 13.3737C165.644 14.4604 166.158 16.1103 166.158 18.3233V26.6222C166.158 26.8396 166.079 27.0273 165.921 27.1853C165.763 27.3434 165.575 27.4225 165.358 27.4225H160.141C159.924 27.4225 159.736 27.3434 159.578 27.1853C159.42 27.0273 159.341 26.8396 159.341 26.6222V18.4715C159.341 17.9973 159.232 17.6417 159.015 17.4045C158.817 17.1477 158.531 17.0192 158.155 17.0192C157.78 17.0192 157.494 17.1477 157.296 17.4045C157.098 17.6417 157 17.9973 157 18.4715V26.6222C157 26.8396 156.921 27.0273 156.762 27.1853C156.604 27.3434 156.417 27.4225 156.199 27.4225H150.983C150.766 27.4225 150.578 27.3434 150.42 27.1853C150.262 27.0273 150.183 26.8396 150.183 26.6222V18.4715C150.183 17.9973 150.074 17.6417 149.857 17.4045C149.659 17.1477 149.373 17.0192 148.997 17.0192C148.622 17.0192 148.325 17.1477 148.108 17.4045C147.91 17.6614 147.812 18.0171 147.812 18.4715V26.6222C147.812 26.8396 147.733 27.0273 147.574 27.1853C147.416 27.3434 147.229 27.4225 147.011 27.4225H141.676Z" fill="#02026F"/>
<path d="M176.664 27.7188C173.977 27.7188 171.892 27.0668 170.41 25.7627C168.928 24.4388 168.188 22.4333 168.188 19.746V19.5385C168.227 17.0291 168.998 15.1026 170.499 13.759C172.021 12.3956 174.066 11.7139 176.635 11.7139C178.492 11.7139 180.053 12.0794 181.318 12.8105C182.602 13.5219 183.55 14.4901 184.163 15.7151C184.775 16.9204 185.082 18.2739 185.082 19.7756V20.6648C185.082 20.8822 185.003 21.0699 184.845 21.2279C184.686 21.386 184.499 21.4651 184.281 21.4651H175.449V21.6133C175.449 22.2258 175.538 22.6802 175.716 22.9766C175.894 23.273 176.19 23.4212 176.605 23.4212C176.763 23.4212 176.891 23.3916 176.99 23.3323C177.089 23.2533 177.247 23.1051 177.464 22.8877C177.642 22.7099 177.79 22.6012 177.909 22.5617C178.028 22.5024 178.205 22.4728 178.443 22.4728H184.044C184.222 22.4728 184.37 22.5321 184.489 22.6506C184.627 22.7494 184.696 22.8877 184.696 23.0656C184.696 23.6188 184.39 24.2709 183.778 25.0217C183.165 25.7528 182.246 26.3851 181.021 26.9186C179.816 27.4521 178.364 27.7188 176.664 27.7188ZM177.82 17.7602V17.7306C177.82 16.4857 177.425 15.8633 176.635 15.8633C175.844 15.8633 175.449 16.4857 175.449 17.7306V17.7602H177.82Z" fill="#02026F"/>
<path d="M194.39 27.7188C192.611 27.7188 191.129 27.4916 189.944 27.0371C188.758 26.5629 187.879 25.9899 187.306 25.3181C186.753 24.6463 186.476 24.014 186.476 23.4212C186.476 23.2236 186.545 23.0557 186.684 22.9174C186.822 22.7593 186.99 22.6802 187.187 22.6802H192.345H192.463C192.661 22.7 192.848 22.7692 193.026 22.8877C193.204 22.9865 193.323 23.0557 193.382 23.0952C193.619 23.2533 193.826 23.3718 194.004 23.4509C194.182 23.5299 194.38 23.5694 194.597 23.5694C194.775 23.5694 194.933 23.5299 195.071 23.4509C195.21 23.3718 195.279 23.2631 195.279 23.1248C195.279 22.9272 195.219 22.7593 195.101 22.621C194.982 22.4827 194.696 22.3443 194.241 22.206C193.807 22.0677 193.125 21.9096 192.196 21.7318C190.616 21.4354 189.311 20.9019 188.284 20.1313C187.276 19.3409 186.772 18.2245 186.772 16.7821C186.772 15.9127 187.059 15.0927 187.632 14.3221C188.225 13.5317 189.084 12.8994 190.211 12.4252C191.357 11.951 192.71 11.7139 194.271 11.7139C195.812 11.7139 197.176 11.951 198.361 12.4252C199.547 12.8797 200.456 13.4428 201.088 14.1146C201.72 14.7864 202.036 15.4187 202.036 16.0115C202.036 16.2091 201.967 16.3869 201.829 16.545C201.691 16.6833 201.542 16.7525 201.384 16.7525H196.701H196.405C196.227 16.7525 196.039 16.713 195.842 16.6339C195.664 16.5351 195.496 16.4265 195.338 16.3079C194.923 16.0115 194.558 15.8633 194.241 15.8633C194.083 15.8633 193.945 15.9127 193.826 16.0115C193.708 16.0906 193.649 16.1992 193.649 16.3375C193.649 16.5351 193.708 16.7031 193.826 16.8414C193.965 16.96 194.261 17.0884 194.716 17.2267C195.19 17.365 195.921 17.5033 196.909 17.6417C198.885 17.938 200.337 18.5605 201.266 19.5089C202.214 20.4376 202.688 21.4749 202.688 22.621C202.688 24.2215 201.967 25.4762 200.525 26.3851C199.082 27.2743 197.037 27.7188 194.39 27.7188Z" fill="#02026F"/>
<defs>
<linearGradient id="paint0_linear_7743_45428" x1="1.55114" y1="4" x2="26" y2="30" gradientUnits="userSpaceOnUse">
<stop stop-color="#000AFF"/>
<stop offset="1" stop-color="#020059"/>
</linearGradient>
</defs>
</svg>
